<svg width="418" height="538" viewBox="0 0 418 538" fill="none" xmlns="http://www.w3.org/2000/svg">
<path d="M112.684 4L13.7441 163.844L4 201.366L72.2084 518.052L117.931 533.811L368.278 364.212L414 229.883L393.013 136.078L112.684 4Z" fill="#E5EAFF" stroke="#00349A" stroke-width="6" stroke-miterlimit="10"/>
<path d="M94.9043 289.363V188.368H115.277V228.112H155.183V188.368H175.555V289.363H155.183V245.207H115.277V289.363H94.9043Z" fill="#00349A"/>
<path d="M196.317 289.363V188.368H226.794L245.098 257.259L263.192 188.368H293.743V289.363H274.825V209.861L254.797 289.363H235.189L215.236 209.861V289.363H196.317Z" fill="#00349A"/>
<path d="M98.0672 319.891L98.412 321.992C97.7374 322.127 97.1528 322.202 96.6131 322.202C95.7586 322.202 95.084 322.067 94.6043 321.797C94.1246 321.527 93.7948 321.167 93.5999 320.716C93.4051 320.281 93.3151 319.335 93.3151 317.91V309.85H91.5762V308.004H93.3151V304.537L95.6687 303.111V308.004H98.0522V309.85H95.6687V318.045C95.6687 318.72 95.7137 319.155 95.7886 319.35C95.8636 319.546 96.0135 319.696 96.1934 319.816C96.3732 319.936 96.6581 319.981 97.0029 319.981C97.2727 319.981 97.6175 319.951 98.0372 319.891H98.0672Z" fill="#00349A"/>
<path d="M100.361 322.007V308.004H102.49V310.135C103.03 309.144 103.539 308.484 104.004 308.169C104.469 307.854 104.979 307.689 105.533 307.689C106.328 307.689 107.152 307.944 107.977 308.454L107.167 310.66C106.583 310.315 106.013 310.15 105.428 310.15C104.904 310.15 104.439 310.3 104.034 310.615C103.614 310.93 103.33 311.366 103.15 311.921C102.88 312.762 102.76 313.692 102.76 314.698V322.037H100.391L100.361 322.007Z" fill="#00349A"/>
<path d="M118.515 320.281C117.63 321.031 116.791 321.557 115.981 321.857C115.172 322.157 114.302 322.322 113.373 322.322C111.829 322.322 110.66 321.947 109.835 321.197C109.011 320.446 108.591 319.486 108.591 318.315C108.591 317.624 108.741 317.009 109.056 316.439C109.37 315.868 109.775 315.418 110.285 315.073C110.794 314.728 111.364 314.473 111.994 314.292C112.458 314.172 113.163 314.052 114.107 313.932C116.026 313.707 117.435 313.437 118.335 313.122C118.335 312.792 118.335 312.596 118.335 312.506C118.335 311.546 118.11 310.855 117.66 310.465C117.061 309.925 116.161 309.655 114.962 309.655C113.853 309.655 113.028 309.85 112.488 310.24C111.964 310.63 111.559 311.321 111.304 312.311L108.981 311.996C109.19 311.006 109.535 310.195 110.015 309.595C110.495 308.979 111.199 308.514 112.114 308.184C113.028 307.854 114.092 307.689 115.292 307.689C116.491 307.689 117.45 307.824 118.2 308.109C118.95 308.394 119.489 308.739 119.849 309.174C120.194 309.595 120.449 310.135 120.584 310.795C120.658 311.201 120.703 311.936 120.703 312.987V316.154C120.703 318.36 120.748 319.756 120.853 320.341C120.958 320.926 121.153 321.482 121.453 322.022H118.979C118.74 321.527 118.575 320.956 118.5 320.296L118.515 320.281ZM118.32 314.983C117.465 315.328 116.161 315.628 114.452 315.883C113.478 316.018 112.788 316.184 112.384 316.364C111.979 316.544 111.664 316.799 111.454 317.129C111.229 317.474 111.124 317.85 111.124 318.255C111.124 318.885 111.364 319.41 111.844 319.831C112.324 320.251 113.028 320.461 113.943 320.461C114.857 320.461 115.667 320.266 116.386 319.861C117.091 319.456 117.615 318.915 117.96 318.225C118.215 317.684 118.335 316.904 118.335 315.853V314.983H118.32Z" fill="#00349A"/>
<path d="M124.391 305.407V302.676H126.759V305.407H124.391ZM124.391 322.022V308.019H126.759V322.022H124.391Z" fill="#00349A"/>
<path d="M130.372 322.007V308.004H132.501V310C133.535 308.454 135.019 307.689 136.953 307.689C137.793 307.689 138.572 307.839 139.277 308.139C139.981 308.439 140.506 308.844 140.866 309.325C141.225 309.805 141.465 310.405 141.6 311.081C141.69 311.516 141.735 312.296 141.735 313.392V322.007H139.367V313.482C139.367 312.521 139.277 311.786 139.097 311.306C138.917 310.825 138.587 310.45 138.122 310.165C137.658 309.88 137.103 309.73 136.473 309.73C135.469 309.73 134.585 310.045 133.865 310.69C133.145 311.336 132.771 312.551 132.771 314.337V321.992H130.402L130.372 322.007Z" fill="#00349A"/>
<path d="M145.394 305.407V302.676H147.762V305.407H145.394ZM145.394 322.022V308.019H147.762V322.022H145.394Z" fill="#00349A"/>
<path d="M151.375 322.007V308.004H153.504V310C154.538 308.454 156.022 307.689 157.956 307.689C158.795 307.689 159.575 307.839 160.28 308.139C160.984 308.439 161.509 308.844 161.869 309.325C162.228 309.805 162.468 310.405 162.603 311.081C162.693 311.516 162.738 312.296 162.738 313.392V322.007H160.37V313.482C160.37 312.521 160.28 311.786 160.1 311.306C159.92 310.825 159.59 310.45 159.125 310.165C158.661 309.88 158.106 309.73 157.476 309.73C156.472 309.73 155.587 310.045 154.868 310.69C154.148 311.336 153.774 312.551 153.774 314.337V321.992H151.405L151.375 322.007Z" fill="#00349A"/>
<path d="M165.946 323.178L168.254 323.523C168.344 324.228 168.614 324.754 169.064 325.084C169.649 325.519 170.458 325.744 171.477 325.744C172.572 325.744 173.426 325.519 174.026 325.084C174.626 324.649 175.03 324.033 175.24 323.238C175.36 322.757 175.42 321.737 175.405 320.191C174.371 321.407 173.081 322.022 171.537 322.022C169.619 322.022 168.119 321.332 167.07 319.936C166.021 318.54 165.496 316.874 165.496 314.938C165.496 313.602 165.736 312.371 166.216 311.246C166.695 310.12 167.4 309.25 168.314 308.619C169.229 307.989 170.308 307.689 171.552 307.689C173.201 307.689 174.566 308.364 175.63 309.7V308.019H177.819V320.131C177.819 322.307 177.594 323.853 177.159 324.769C176.709 325.684 176.02 326.405 175.045 326.93C174.071 327.455 172.902 327.725 171.492 327.725C169.828 327.725 168.479 327.35 167.445 326.6C166.411 325.849 165.916 324.724 165.961 323.208L165.946 323.178ZM167.91 314.758C167.91 316.589 168.269 317.94 169.004 318.78C169.739 319.621 170.653 320.041 171.747 320.041C172.842 320.041 173.756 319.621 174.491 318.78C175.225 317.94 175.6 316.619 175.6 314.833C175.6 313.047 175.225 311.831 174.461 310.961C173.696 310.09 172.782 309.655 171.717 309.655C170.653 309.655 169.768 310.09 169.034 310.946C168.299 311.801 167.925 313.077 167.925 314.758H167.91Z" fill="#00349A"/>
<path d="M187.967 316.214V313.827H195.252V316.214H187.967Z" fill="#00349A"/>
<path d="M207.56 322.007H205.356V302.676H207.725V309.58C208.729 308.319 210.004 307.689 211.563 307.689C212.417 307.689 213.242 307.869 214.006 308.214C214.771 308.559 215.4 309.054 215.91 309.685C216.405 310.315 216.794 311.066 217.079 311.966C217.364 312.867 217.499 313.797 217.499 314.818C217.499 317.219 216.914 319.08 215.715 320.386C214.516 321.692 213.107 322.352 211.443 322.352C209.779 322.352 208.49 321.662 207.56 320.281V322.037V322.007ZM207.53 314.893C207.53 316.574 207.755 317.79 208.22 318.54C208.969 319.756 209.974 320.371 211.248 320.371C212.282 320.371 213.182 319.921 213.931 319.02C214.681 318.12 215.071 316.769 215.071 314.998C215.071 313.227 214.711 311.816 213.976 310.946C213.242 310.075 212.372 309.64 211.353 309.64C210.333 309.64 209.419 310.09 208.669 310.991C207.92 311.891 207.53 313.197 207.53 314.908V314.893Z" fill="#00349A"/>
<path d="M220.348 322.007V308.004H222.476V310.135C223.016 309.144 223.526 308.484 223.99 308.169C224.455 307.854 224.965 307.689 225.505 307.689C226.299 307.689 227.124 307.944 227.948 308.454L227.139 310.66C226.554 310.315 225.984 310.15 225.4 310.15C224.875 310.15 224.41 310.3 224.005 310.615C223.586 310.93 223.301 311.366 223.121 311.921C222.851 312.762 222.731 313.692 222.731 314.698V322.037H220.363L220.348 322.007Z" fill="#00349A"/>
<path d="M238.532 322.007V319.951C237.438 321.527 235.968 322.322 234.095 322.322C233.27 322.322 232.491 322.157 231.786 321.842C231.081 321.527 230.542 321.121 230.197 320.641C229.852 320.161 229.612 319.575 229.462 318.885C229.372 318.42 229.312 317.684 229.312 316.664V307.989H231.681V315.763C231.681 317.009 231.726 317.834 231.831 318.27C231.981 318.9 232.296 319.38 232.775 319.741C233.255 320.101 233.855 320.281 234.574 320.281C235.294 320.281 235.953 320.101 236.583 319.726C237.213 319.365 237.647 318.87 237.902 318.24C238.157 317.609 238.292 316.694 238.292 315.508V308.004H240.661V322.007H238.532Z" fill="#00349A"/>
<path d="M243.418 317.835L245.757 317.459C245.892 318.405 246.252 319.125 246.851 319.621C247.451 320.116 248.29 320.371 249.37 320.371C250.449 320.371 251.274 320.146 251.798 319.711C252.323 319.275 252.593 318.75 252.593 318.15C252.593 317.609 252.353 317.189 251.888 316.889C251.558 316.679 250.749 316.409 249.46 316.079C247.721 315.643 246.521 315.253 245.847 314.938C245.172 314.623 244.663 314.172 244.318 313.602C243.973 313.032 243.793 312.401 243.793 311.726C243.793 311.096 243.928 310.525 244.228 309.985C244.513 309.445 244.902 309.009 245.397 308.664C245.772 308.394 246.267 308.169 246.911 307.974C247.541 307.794 248.23 307.689 248.965 307.689C250.059 307.689 251.034 307.854 251.858 308.169C252.683 308.484 253.297 308.919 253.702 309.46C254.092 310 254.377 310.72 254.512 311.636L252.188 311.951C252.083 311.231 251.783 310.66 251.274 310.27C250.764 309.865 250.059 309.67 249.13 309.67C248.035 309.67 247.256 309.85 246.791 310.21C246.327 310.57 246.087 310.991 246.087 311.471C246.087 311.786 246.177 312.056 246.372 312.296C246.566 312.551 246.866 312.762 247.286 312.927C247.526 313.017 248.215 313.212 249.385 313.527C251.064 313.977 252.233 314.337 252.893 314.623C253.552 314.908 254.077 315.328 254.452 315.868C254.826 316.409 255.021 317.084 255.021 317.895C255.021 318.705 254.796 319.425 254.332 320.131C253.867 320.836 253.207 321.377 252.338 321.752C251.468 322.127 250.479 322.322 249.385 322.322C247.571 322.322 246.177 321.947 245.232 321.182C244.273 320.431 243.673 319.305 243.403 317.82L243.418 317.835Z" fill="#00349A"/>
<path d="M256.91 317.835L259.249 317.459C259.384 318.405 259.744 319.125 260.343 319.621C260.943 320.116 261.783 320.371 262.862 320.371C263.941 320.371 264.766 320.146 265.29 319.711C265.815 319.275 266.085 318.75 266.085 318.15C266.085 317.609 265.845 317.189 265.38 316.889C265.051 316.679 264.241 316.409 262.952 316.079C261.213 315.643 260.014 315.253 259.339 314.938C258.664 314.623 258.155 314.172 257.81 313.602C257.465 313.032 257.285 312.401 257.285 311.726C257.285 311.096 257.42 310.525 257.72 309.985C258.005 309.445 258.395 309.009 258.889 308.664C259.264 308.394 259.759 308.169 260.403 307.974C261.033 307.794 261.723 307.689 262.457 307.689C263.551 307.689 264.526 307.854 265.35 308.169C266.175 308.484 266.789 308.919 267.194 309.46C267.584 310 267.869 310.72 268.004 311.636L265.68 311.951C265.575 311.231 265.275 310.66 264.766 310.27C264.256 309.865 263.551 309.67 262.622 309.67C261.528 309.67 260.748 309.85 260.283 310.21C259.819 310.57 259.579 310.991 259.579 311.471C259.579 311.786 259.669 312.056 259.864 312.296C260.059 312.551 260.358 312.762 260.778 312.927C261.018 313.017 261.708 313.212 262.877 313.527C264.556 313.977 265.725 314.337 266.385 314.623C267.044 314.908 267.569 315.328 267.944 315.868C268.319 316.409 268.513 317.084 268.513 317.895C268.513 318.705 268.289 319.425 267.824 320.131C267.359 320.836 266.7 321.377 265.83 321.752C264.961 322.127 263.971 322.322 262.877 322.322C261.063 322.322 259.669 321.947 258.724 321.182C257.765 320.431 257.165 319.305 256.896 317.82L256.91 317.835Z" fill="#00349A"/>
<path d="M280.941 317.504L283.385 317.804C282.995 319.245 282.275 320.356 281.241 321.136C280.206 321.917 278.857 322.322 277.238 322.322C275.185 322.322 273.566 321.692 272.366 320.431C271.167 319.17 270.567 317.399 270.567 315.118C270.567 312.837 271.167 310.93 272.381 309.625C273.596 308.319 275.17 307.673 277.103 307.673C279.037 307.673 280.506 308.304 281.691 309.58C282.875 310.855 283.475 312.641 283.475 314.968C283.475 315.103 283.475 315.313 283.475 315.598H273.041C273.131 317.144 273.566 318.315 274.345 319.14C275.125 319.966 276.099 320.371 277.268 320.371C278.138 320.371 278.887 320.146 279.502 319.681C280.117 319.215 280.611 318.495 280.971 317.489L280.941 317.504ZM273.161 313.662H280.971C280.866 312.476 280.566 311.606 280.072 311.005C279.322 310.09 278.333 309.64 277.133 309.64C276.039 309.64 275.125 310 274.39 310.735C273.656 311.471 273.236 312.446 273.161 313.662Z" fill="#00349A"/>
<path d="M286.308 322.007V302.676H288.676V322.007H286.308Z" fill="#00349A"/>
<path d="M291.404 317.835L293.742 317.459C293.877 318.405 294.237 319.125 294.837 319.621C295.436 320.116 296.276 320.371 297.355 320.371C298.434 320.371 299.259 320.146 299.784 319.711C300.308 319.275 300.578 318.75 300.578 318.15C300.578 317.609 300.338 317.189 299.874 316.889C299.544 316.679 298.734 316.409 297.445 316.079C295.706 315.643 294.507 315.253 293.832 314.938C293.158 314.623 292.648 314.172 292.303 313.602C291.958 313.032 291.778 312.401 291.778 311.726C291.778 311.096 291.913 310.525 292.213 309.985C292.498 309.445 292.888 309.009 293.382 308.664C293.757 308.394 294.252 308.169 294.897 307.974C295.526 307.794 296.216 307.689 296.95 307.689C298.045 307.689 299.019 307.854 299.844 308.169C300.668 308.484 301.283 308.919 301.687 309.46C302.077 310 302.362 310.72 302.497 311.636L300.173 311.951C300.068 311.231 299.769 310.66 299.259 310.27C298.749 309.865 298.045 309.67 297.115 309.67C296.021 309.67 295.241 309.85 294.777 310.21C294.312 310.57 294.072 310.991 294.072 311.471C294.072 311.786 294.162 312.056 294.357 312.296C294.552 312.551 294.852 312.762 295.271 312.927C295.511 313.017 296.201 313.212 297.37 313.527C299.049 313.977 300.218 314.337 300.878 314.623C301.537 314.908 302.062 315.328 302.437 315.868C302.812 316.409 303.007 317.084 303.007 317.895C303.007 318.705 302.782 319.425 302.317 320.131C301.852 320.836 301.193 321.377 300.323 321.752C299.454 322.127 298.464 322.322 297.37 322.322C295.556 322.322 294.162 321.947 293.218 321.182C292.258 320.431 291.659 319.305 291.389 317.82L291.404 317.835Z" fill="#00349A"/>
</svg>
