<svg width="317" height="408" viewBox="0 0 317 408" fill="none" xmlns="http://www.w3.org/2000/svg">
<path d="M85.0408 4L10.3554 124.66L3 152.983L54.4877 392.037L89.0014 403.933L277.978 275.909L312.492 174.51L296.65 103.7L85.0408 4Z" stroke="#00349A" stroke-width="3" stroke-miterlimit="10"/>
<path d="M71.6201 219.409V143.172H86.9985V173.173H117.122V143.172H132.5V219.409H117.122V186.077H86.9985V219.409H71.6201Z" fill="#00349A"/>
<path d="M148.173 219.409V143.172H171.178L184.995 195.175L198.653 143.172H221.715V219.409H207.434V159.396L192.316 219.409H177.515L162.453 159.396V219.409H148.173Z" fill="#00349A"/>
<path d="M74.0077 242.453L74.268 244.039C73.7588 244.141 73.3175 244.198 72.9101 244.198C72.2651 244.198 71.7558 244.096 71.3937 243.892C71.0316 243.688 70.7827 243.416 70.6356 243.076C70.4885 242.747 70.4206 242.034 70.4206 240.957V234.873H69.1079V233.48H70.4206V230.863L72.1972 229.786V233.48H73.9964V234.873H72.1972V241.059C72.1972 241.569 72.2311 241.898 72.2877 242.045C72.3443 242.192 72.4574 242.306 72.5932 242.396C72.729 242.487 72.944 242.521 73.2043 242.521C73.408 242.521 73.6682 242.498 73.9851 242.453H74.0077Z" fill="#00349A"/>
<path d="M75.739 244.05V233.48H77.3459V235.089C77.7533 234.341 78.138 233.842 78.4888 233.604C78.8396 233.367 79.2243 233.242 79.643 233.242C80.2428 233.242 80.8652 233.435 81.4875 233.82L80.8765 235.485C80.4351 235.225 80.0051 235.1 79.5638 235.1C79.1678 235.1 78.817 235.213 78.5114 235.451C78.1946 235.689 77.9796 236.018 77.8438 236.437C77.6401 237.071 77.5496 237.774 77.5496 238.533V244.073H75.7616L75.739 244.05Z" fill="#00349A"/>
<path d="M89.4428 242.747C88.7752 243.314 88.1415 243.71 87.5304 243.937C86.9194 244.164 86.2631 244.288 85.5615 244.288C84.3959 244.288 83.5133 244.005 82.8909 243.439C82.2685 242.872 81.9517 242.147 81.9517 241.263C81.9517 240.742 82.0648 240.278 82.3025 239.847C82.5401 239.417 82.8456 239.077 83.2304 238.816C83.6151 238.555 84.0451 238.363 84.5204 238.227C84.8712 238.136 85.403 238.046 86.1159 237.955C87.5644 237.785 88.6281 237.581 89.307 237.343C89.307 237.094 89.307 236.947 89.307 236.879C89.307 236.154 89.1373 235.632 88.7978 235.338C88.3452 234.93 87.6662 234.726 86.761 234.726C85.9236 234.726 85.3012 234.873 84.8938 235.168C84.4978 235.463 84.1922 235.984 83.9999 236.731L82.2459 236.494C82.4043 235.746 82.6646 235.134 83.0267 234.681C83.3888 234.216 83.9206 233.865 84.6109 233.616C85.3012 233.367 86.1046 233.242 87.0099 233.242C87.9152 233.242 88.6394 233.344 89.2052 233.559C89.771 233.774 90.1784 234.035 90.45 234.364C90.7102 234.681 90.9026 235.089 91.0044 235.587C91.061 235.893 91.095 236.448 91.095 237.241V239.632C91.095 241.297 91.1289 242.351 91.2081 242.793C91.2873 243.235 91.4345 243.654 91.6608 244.062H89.7936C89.6126 243.688 89.4881 243.257 89.4315 242.759L89.4428 242.747ZM89.2957 238.748C88.6507 239.009 87.6662 239.235 86.3762 239.428C85.6407 239.53 85.1201 239.654 84.8146 239.79C84.5091 239.926 84.2714 240.119 84.113 240.368C83.9433 240.629 83.8641 240.912 83.8641 241.218C83.8641 241.694 84.0451 242.09 84.4072 242.408C84.7693 242.725 85.3012 242.883 85.9915 242.883C86.6817 242.883 87.2928 242.736 87.836 242.43C88.3678 242.124 88.7639 241.716 89.0241 241.195C89.2165 240.787 89.307 240.198 89.307 239.405V238.748H89.2957Z" fill="#00349A"/>
<path d="M93.8787 231.52V229.458H95.6666V231.52H93.8787ZM93.8787 244.062V233.491H95.6666V244.062H93.8787Z" fill="#00349A"/>
<path d="M98.3936 244.05V233.48H100V234.987C100.781 233.82 101.902 233.242 103.361 233.242C103.995 233.242 104.583 233.355 105.115 233.582C105.647 233.808 106.043 234.114 106.315 234.477C106.586 234.839 106.767 235.293 106.869 235.802C106.937 236.131 106.971 236.72 106.971 237.547V244.05H105.183V237.615C105.183 236.89 105.115 236.335 104.979 235.972C104.844 235.61 104.595 235.327 104.244 235.111C103.893 234.896 103.474 234.783 102.999 234.783C102.241 234.783 101.573 235.021 101.03 235.508C100.487 235.995 100.204 236.913 100.204 238.261V244.039H98.4162L98.3936 244.05Z" fill="#00349A"/>
<path d="M109.732 231.52V229.458H111.52V231.52H109.732ZM109.732 244.062V233.491H111.52V244.062H109.732Z" fill="#00349A"/>
<path d="M114.247 244.05V233.48H115.854V234.987C116.635 233.82 117.755 233.242 119.215 233.242C119.849 233.242 120.437 233.355 120.969 233.582C121.501 233.808 121.897 234.114 122.169 234.477C122.44 234.839 122.621 235.293 122.723 235.802C122.791 236.131 122.825 236.72 122.825 237.547V244.05H121.037V237.615C121.037 236.89 120.969 236.335 120.833 235.972C120.697 235.61 120.448 235.327 120.098 235.111C119.747 234.896 119.328 234.783 118.853 234.783C118.095 234.783 117.427 235.021 116.884 235.508C116.341 235.995 116.058 236.913 116.058 238.261V244.039H114.27L114.247 244.05Z" fill="#00349A"/>
<path d="M125.246 244.934L126.989 245.195C127.057 245.727 127.261 246.124 127.6 246.373C128.042 246.701 128.653 246.871 129.422 246.871C130.248 246.871 130.893 246.701 131.346 246.373C131.798 246.044 132.104 245.58 132.262 244.979C132.353 244.617 132.398 243.846 132.387 242.679C131.606 243.597 130.633 244.062 129.467 244.062C128.019 244.062 126.887 243.54 126.095 242.487C125.303 241.433 124.907 240.176 124.907 238.714C124.907 237.706 125.088 236.777 125.45 235.927C125.812 235.077 126.344 234.42 127.034 233.944C127.725 233.469 128.539 233.242 129.479 233.242C130.723 233.242 131.753 233.752 132.557 234.76V233.491H134.209V242.634C134.209 244.277 134.039 245.444 133.711 246.135C133.371 246.826 132.851 247.37 132.115 247.766C131.38 248.163 130.497 248.367 129.433 248.367C128.177 248.367 127.159 248.084 126.378 247.517C125.597 246.951 125.224 246.101 125.258 244.957L125.246 244.934ZM126.729 238.578C126.729 239.96 127 240.98 127.555 241.614C128.109 242.249 128.8 242.566 129.626 242.566C130.452 242.566 131.142 242.249 131.697 241.614C132.251 240.98 132.534 239.983 132.534 238.635C132.534 237.287 132.251 236.369 131.674 235.712C131.097 235.055 130.407 234.726 129.603 234.726C128.8 234.726 128.132 235.055 127.578 235.7C127.023 236.346 126.74 237.309 126.74 238.578H126.729Z" fill="#00349A"/>
<path d="M141.87 239.677V237.876H147.369V239.677H141.87Z" fill="#00349A"/>
<path d="M156.66 244.05H154.996V229.458H156.784V234.669C157.542 233.718 158.504 233.242 159.681 233.242C160.326 233.242 160.948 233.378 161.525 233.638C162.103 233.899 162.578 234.273 162.963 234.749C163.336 235.225 163.63 235.791 163.845 236.471C164.06 237.151 164.162 237.853 164.162 238.623C164.162 240.436 163.721 241.841 162.815 242.827C161.91 243.812 160.846 244.311 159.59 244.311C158.334 244.311 157.361 243.79 156.66 242.747V244.073V244.05ZM156.637 238.68C156.637 239.949 156.807 240.867 157.157 241.433C157.723 242.351 158.481 242.815 159.443 242.815C160.224 242.815 160.903 242.475 161.469 241.796C162.035 241.116 162.329 240.096 162.329 238.759C162.329 237.422 162.057 236.357 161.503 235.7C160.948 235.043 160.292 234.715 159.522 234.715C158.753 234.715 158.063 235.055 157.497 235.734C156.931 236.414 156.637 237.4 156.637 238.691V238.68Z" fill="#00349A"/>
<path d="M166.312 244.05V233.48H167.919V235.089C168.326 234.341 168.711 233.842 169.062 233.604C169.413 233.367 169.798 233.242 170.205 233.242C170.805 233.242 171.427 233.435 172.049 233.82L171.438 235.485C170.997 235.225 170.567 235.1 170.126 235.1C169.73 235.1 169.379 235.213 169.073 235.451C168.757 235.689 168.542 236.018 168.406 236.437C168.202 237.071 168.111 237.774 168.111 238.533V244.073H166.324L166.312 244.05Z" fill="#00349A"/>
<path d="M180.038 244.05V242.498C179.212 243.688 178.103 244.288 176.689 244.288C176.067 244.288 175.478 244.164 174.946 243.926C174.414 243.688 174.007 243.382 173.747 243.019C173.486 242.657 173.305 242.215 173.192 241.694C173.124 241.343 173.079 240.787 173.079 240.017V233.469H174.867V239.337C174.867 240.278 174.901 240.901 174.98 241.229C175.093 241.705 175.331 242.068 175.693 242.34C176.055 242.611 176.508 242.747 177.051 242.747C177.594 242.747 178.092 242.611 178.567 242.328C179.043 242.056 179.371 241.682 179.563 241.207C179.756 240.731 179.857 240.04 179.857 239.145V233.48H181.645V244.05H180.038Z" fill="#00349A"/>
<path d="M183.727 240.901L185.493 240.617C185.595 241.331 185.866 241.875 186.319 242.249C186.771 242.623 187.405 242.815 188.22 242.815C189.035 242.815 189.657 242.645 190.053 242.317C190.449 241.988 190.653 241.592 190.653 241.139C190.653 240.731 190.472 240.414 190.121 240.187C189.872 240.028 189.261 239.824 188.288 239.575C186.975 239.247 186.07 238.952 185.561 238.714C185.051 238.476 184.667 238.136 184.406 237.706C184.146 237.275 184.01 236.799 184.01 236.29C184.01 235.814 184.112 235.383 184.338 234.975C184.553 234.567 184.848 234.239 185.221 233.978C185.504 233.774 185.877 233.604 186.364 233.457C186.839 233.321 187.36 233.242 187.914 233.242C188.74 233.242 189.476 233.367 190.098 233.604C190.721 233.842 191.185 234.171 191.49 234.579C191.784 234.987 191.999 235.53 192.101 236.222L190.347 236.46C190.268 235.916 190.042 235.485 189.657 235.191C189.272 234.885 188.74 234.737 188.039 234.737C187.213 234.737 186.624 234.873 186.273 235.145C185.923 235.417 185.742 235.734 185.742 236.097C185.742 236.335 185.81 236.539 185.957 236.72C186.104 236.913 186.33 237.071 186.647 237.196C186.828 237.264 187.348 237.411 188.231 237.649C189.499 237.989 190.381 238.261 190.879 238.476C191.377 238.691 191.773 239.009 192.056 239.417C192.339 239.824 192.486 240.334 192.486 240.946C192.486 241.558 192.316 242.102 191.965 242.634C191.615 243.167 191.117 243.574 190.46 243.858C189.804 244.141 189.057 244.288 188.231 244.288C186.862 244.288 185.81 244.005 185.097 243.427C184.372 242.861 183.92 242.011 183.716 240.889L183.727 240.901Z" fill="#00349A"/>
<path d="M193.912 240.901L195.677 240.617C195.779 241.331 196.051 241.875 196.503 242.249C196.956 242.623 197.59 242.815 198.404 242.815C199.219 242.815 199.842 242.645 200.238 242.317C200.634 241.988 200.837 241.592 200.837 241.139C200.837 240.731 200.656 240.414 200.305 240.187C200.057 240.028 199.445 239.824 198.472 239.575C197.16 239.247 196.254 238.952 195.745 238.714C195.236 238.476 194.851 238.136 194.591 237.706C194.331 237.275 194.195 236.799 194.195 236.29C194.195 235.814 194.297 235.383 194.523 234.975C194.738 234.567 195.032 234.239 195.406 233.978C195.689 233.774 196.062 233.604 196.549 233.457C197.024 233.321 197.544 233.242 198.099 233.242C198.925 233.242 199.66 233.367 200.283 233.604C200.905 233.842 201.369 234.171 201.675 234.579C201.969 234.987 202.184 235.53 202.286 236.222L200.532 236.46C200.453 235.916 200.226 235.485 199.842 235.191C199.457 234.885 198.925 234.737 198.223 234.737C197.397 234.737 196.809 234.873 196.458 235.145C196.107 235.417 195.926 235.734 195.926 236.097C195.926 236.335 195.994 236.539 196.141 236.72C196.288 236.913 196.515 237.071 196.831 237.196C197.013 237.264 197.533 237.411 198.416 237.649C199.683 237.989 200.566 238.261 201.064 238.476C201.562 238.691 201.958 239.009 202.241 239.417C202.523 239.824 202.671 240.334 202.671 240.946C202.671 241.558 202.501 242.102 202.15 242.634C201.799 243.167 201.301 243.574 200.645 243.858C199.989 244.141 199.242 244.288 198.416 244.288C197.046 244.288 195.994 244.005 195.281 243.427C194.557 242.861 194.104 242.011 193.901 240.889L193.912 240.901Z" fill="#00349A"/>
<path d="M212.051 240.651L213.896 240.878C213.602 241.966 213.058 242.804 212.278 243.393C211.497 243.982 210.478 244.288 209.256 244.288C207.706 244.288 206.484 243.812 205.579 242.861C204.673 241.909 204.221 240.572 204.221 238.85C204.221 237.128 204.673 235.689 205.59 234.703C206.507 233.718 207.695 233.23 209.154 233.23C210.614 233.23 211.723 233.706 212.617 234.669C213.511 235.632 213.964 236.981 213.964 238.737C213.964 238.839 213.964 238.997 213.964 239.212H206.088C206.156 240.379 206.484 241.263 207.072 241.886C207.661 242.509 208.396 242.815 209.279 242.815C209.935 242.815 210.501 242.645 210.965 242.294C211.429 241.943 211.802 241.399 212.074 240.64L212.051 240.651ZM206.178 237.751H212.074C211.995 236.856 211.768 236.199 211.395 235.746C210.829 235.055 210.082 234.715 209.177 234.715C208.351 234.715 207.661 234.987 207.106 235.542C206.552 236.097 206.235 236.833 206.178 237.751Z" fill="#00349A"/>
<path d="M216.103 244.05V229.458H217.89V244.05H216.103Z" fill="#00349A"/>
<path d="M219.95 240.901L221.715 240.617C221.817 241.331 222.089 241.875 222.541 242.249C222.994 242.623 223.628 242.815 224.442 242.815C225.257 242.815 225.88 242.645 226.276 242.317C226.672 241.988 226.875 241.592 226.875 241.139C226.875 240.731 226.694 240.414 226.344 240.187C226.095 240.028 225.484 239.824 224.51 239.575C223.198 239.247 222.292 238.952 221.783 238.714C221.274 238.476 220.889 238.136 220.629 237.706C220.369 237.275 220.233 236.799 220.233 236.29C220.233 235.814 220.335 235.383 220.561 234.975C220.776 234.567 221.07 234.239 221.444 233.978C221.727 233.774 222.1 233.604 222.587 233.457C223.062 233.321 223.582 233.242 224.137 233.242C224.963 233.242 225.699 233.367 226.321 233.604C226.943 233.842 227.407 234.171 227.713 234.579C228.007 234.987 228.222 235.53 228.324 236.222L226.57 236.46C226.491 235.916 226.264 235.485 225.88 235.191C225.495 234.885 224.963 234.737 224.261 234.737C223.435 234.737 222.847 234.873 222.496 235.145C222.145 235.417 221.964 235.734 221.964 236.097C221.964 236.335 222.032 236.539 222.179 236.72C222.326 236.913 222.553 237.071 222.87 237.196C223.051 237.264 223.571 237.411 224.454 237.649C225.721 237.989 226.604 238.261 227.102 238.476C227.6 238.691 227.996 239.009 228.279 239.417C228.561 239.824 228.709 240.334 228.709 240.946C228.709 241.558 228.539 242.102 228.188 242.634C227.837 243.167 227.339 243.574 226.683 243.858C226.027 244.141 225.28 244.288 224.454 244.288C223.085 244.288 222.032 244.005 221.319 243.427C220.595 242.861 220.142 242.011 219.939 240.889L219.95 240.901Z" fill="#00349A"/>
</svg>
