<svg width="310" height="400" viewBox="0 0 310 400" fill="none" xmlns="http://www.w3.org/2000/svg">
<g clip-path="url(#clip0_1149_93)">
<path fill-rule="evenodd" clip-rule="evenodd" d="M9.01096 121.63L82.9806 2.16504L292.561 100.878L308.252 170.986L274.069 271.382L86.9032 398.138L52.7203 386.36L1.72607 149.673L9.01096 121.63ZM69.6883 139.959V215.441H84.9193V182.439H114.754V215.441H129.985V139.959H114.754V169.663H84.9193V139.959H69.6883ZM145.507 215.441V139.959H168.292L181.976 191.447L195.504 139.959H218.345V215.441H204.201V156.022L189.228 215.441H174.568L159.651 156.022V215.441H145.507ZM72.3108 239.827L72.0531 238.257H72.0306C71.7168 238.302 71.4591 238.324 71.2573 238.324C70.9995 238.324 70.7866 238.29 70.6521 238.201C70.5176 238.111 70.4055 237.999 70.3495 237.853C70.2935 237.707 70.2598 237.382 70.2598 236.877V230.752H72.0418V229.373H70.2598V225.716L68.5003 226.781V229.373H67.2002V230.752H68.5003V236.776C68.5003 237.842 68.5675 238.548 68.7132 238.874C68.8589 239.21 69.1055 239.479 69.4641 239.681C69.8228 239.883 70.3271 239.984 70.9659 239.984C71.3694 239.984 71.8065 239.928 72.3108 239.827ZM73.7678 239.838V229.373H75.3593V230.965C75.7627 230.225 76.1438 229.732 76.4912 229.496C76.8387 229.26 77.2197 229.137 77.6344 229.137C78.2284 229.137 78.8448 229.328 79.4612 229.709L78.856 231.358C78.4189 231.1 77.993 230.977 77.5559 230.977C77.1637 230.977 76.8162 231.089 76.5136 231.324C76.1998 231.56 75.9869 231.885 75.8524 232.3C75.6507 232.928 75.561 233.624 75.561 234.376V239.861H73.7902L73.7678 239.838ZM85.446 239.726C86.0512 239.502 86.6789 239.109 87.3401 238.548L87.3289 238.56C87.3849 239.053 87.5082 239.479 87.6875 239.85H89.5368C89.3126 239.446 89.1669 239.031 89.0885 238.593C89.01 238.156 88.9764 237.113 88.9764 235.464V233.097C88.9764 232.312 88.9428 231.762 88.8867 231.459C88.7859 230.965 88.5954 230.562 88.3376 230.248C88.0686 229.922 87.6651 229.664 87.1048 229.451C86.5444 229.238 85.8271 229.137 84.9305 229.137C84.0339 229.137 83.2382 229.26 82.5545 229.507C81.8708 229.754 81.3441 230.102 80.9855 230.562C80.6268 231.01 80.369 231.616 80.2121 232.356L81.9493 232.592C82.1398 231.852 82.4424 231.336 82.8347 231.044C83.2382 230.752 83.8546 230.607 84.6839 230.607C85.5805 230.607 86.253 230.808 86.7013 231.212C87.0375 231.504 87.2056 232.02 87.2056 232.738V233.198C86.5332 233.433 85.4797 233.635 84.0451 233.803C83.339 233.893 82.8123 233.983 82.4648 234.073C81.9941 234.207 81.5682 234.398 81.1872 234.656C80.8061 234.914 80.5035 235.251 80.2682 235.677C80.0328 236.103 79.9207 236.563 79.9207 237.079C79.9207 237.954 80.2345 238.672 80.851 239.233C81.4674 239.794 82.3416 240.074 83.4959 240.074C84.1908 240.074 84.8408 239.951 85.446 239.726ZM84.3029 235.262C85.5805 235.071 86.5556 234.847 87.1944 234.589H87.2056V235.239C87.2056 236.025 87.116 236.608 86.9254 237.012C86.6677 237.528 86.2754 237.931 85.7486 238.234C85.2107 238.537 84.6055 238.683 83.9218 238.683C83.2382 238.683 82.7114 238.526 82.3528 238.212C81.9941 237.898 81.8148 237.505 81.8148 237.034C81.8148 236.731 81.8933 236.451 82.0614 236.193C82.2183 235.946 82.4536 235.755 82.7562 235.621C83.0588 235.486 83.5744 235.363 84.3029 235.262ZM91.7335 227.432V225.39H93.5042V227.432H91.7335ZM91.7335 239.85V229.384H93.5042V239.85H91.7335ZM96.2053 229.373V239.838L96.2277 239.827H97.9985V234.106C97.9985 232.771 98.2786 231.863 98.8166 231.381C99.3546 230.898 100.016 230.663 100.767 230.663C101.237 230.663 101.652 230.775 102 230.988C102.347 231.201 102.594 231.481 102.728 231.84C102.863 232.199 102.93 232.749 102.93 233.467V239.838H104.701V233.4C104.701 232.581 104.667 231.997 104.6 231.672C104.499 231.167 104.319 230.719 104.051 230.36C103.782 230.001 103.389 229.698 102.863 229.474C102.336 229.249 101.753 229.137 101.125 229.137C99.6796 229.137 98.57 229.709 97.7967 230.865V229.373H96.2053ZM107.435 227.432V225.39H109.206V227.432H107.435ZM107.435 239.85V229.384H109.206V239.85H107.435ZM111.907 229.373V239.838L111.929 239.827H113.7V234.106C113.7 232.771 113.98 231.863 114.518 231.381C115.056 230.898 115.718 230.663 116.468 230.663C116.939 230.663 117.354 230.775 117.701 230.988C118.049 231.201 118.295 231.481 118.43 231.84C118.564 232.199 118.632 232.749 118.632 233.467V239.838H120.402V233.4C120.402 232.581 120.369 231.997 120.301 231.672C120.201 231.167 120.021 230.719 119.752 230.36C119.483 230.001 119.091 229.698 118.564 229.474C118.038 229.249 117.455 229.137 116.827 229.137C115.381 229.137 114.272 229.709 113.498 230.865V229.373H111.907ZM122.801 240.713L124.527 240.971C124.594 241.499 124.796 241.891 125.132 242.138C125.569 242.463 126.174 242.632 126.936 242.632C127.754 242.632 128.393 242.463 128.842 242.138C129.29 241.813 129.592 241.353 129.749 240.758C129.839 240.399 129.884 239.636 129.873 238.481C129.099 239.39 128.135 239.85 126.981 239.85C125.547 239.85 124.426 239.334 123.641 238.29C122.857 237.247 122.464 236.002 122.464 234.555C122.464 233.557 122.644 232.637 123.002 231.796C123.361 230.954 123.888 230.304 124.571 229.833C125.255 229.361 126.062 229.137 126.992 229.137C128.225 229.137 129.245 229.642 130.041 230.64V229.384H131.677V238.436C131.677 240.063 131.509 241.218 131.184 241.902C130.848 242.587 130.332 243.125 129.604 243.518C128.875 243.91 128.001 244.112 126.947 244.112C125.703 244.112 124.695 243.832 123.921 243.271C123.148 242.71 122.778 241.869 122.812 240.736L122.801 240.713ZM124.269 234.42C124.269 235.789 124.538 236.798 125.087 237.427C125.636 238.055 126.32 238.369 127.138 238.369C127.956 238.369 128.64 238.055 129.189 237.427C129.738 236.798 130.018 235.811 130.018 234.477C130.018 233.142 129.738 232.233 129.167 231.582C128.595 230.932 127.911 230.607 127.116 230.607C126.32 230.607 125.659 230.932 125.109 231.571C124.56 232.211 124.28 233.164 124.28 234.42H124.269ZM139.265 233.725V235.508H144.711V233.725H139.265ZM153.913 239.838H152.265V225.39H154.036V230.55C154.787 229.608 155.74 229.137 156.905 229.137C157.544 229.137 158.16 229.272 158.732 229.53C159.304 229.788 159.774 230.158 160.155 230.629C160.525 231.1 160.817 231.661 161.03 232.334C161.242 233.007 161.343 233.702 161.343 234.465C161.343 236.26 160.906 237.651 160.01 238.627C159.113 239.603 158.06 240.096 156.816 240.096C155.571 240.096 154.608 239.58 153.913 238.548V239.838ZM153.89 234.528C153.891 235.781 154.059 236.687 154.406 237.247C154.966 238.156 155.717 238.616 156.67 238.616C157.443 238.616 158.116 238.279 158.676 237.606C159.236 236.933 159.528 235.924 159.528 234.6C159.528 233.276 159.259 232.222 158.71 231.571C158.16 230.921 157.51 230.595 156.748 230.595C155.986 230.595 155.303 230.932 154.742 231.605C154.182 232.277 153.891 233.251 153.89 234.528ZM163.473 229.373V239.838L163.484 239.861H165.255V234.376C165.255 233.624 165.344 232.928 165.546 232.3C165.681 231.885 165.894 231.56 166.207 231.324C166.51 231.089 166.857 230.977 167.25 230.977C167.687 230.977 168.113 231.1 168.55 231.358L169.155 229.709C168.539 229.328 167.922 229.137 167.328 229.137C166.925 229.137 166.544 229.26 166.196 229.496C165.849 229.732 165.468 230.225 165.064 230.965V229.373H163.473ZM177.068 239.838V238.302C176.249 239.479 175.151 240.074 173.75 240.074C173.134 240.074 172.551 239.951 172.024 239.715C171.497 239.479 171.094 239.177 170.836 238.818C170.578 238.459 170.399 238.021 170.287 237.505C170.22 237.157 170.175 236.608 170.175 235.845V229.361H171.946V235.172C171.946 236.103 171.979 236.72 172.058 237.045C172.17 237.516 172.405 237.875 172.764 238.145C173.122 238.414 173.571 238.548 174.109 238.548C174.647 238.548 175.14 238.414 175.611 238.133C176.081 237.864 176.406 237.494 176.597 237.023C176.787 236.552 176.888 235.867 176.888 234.981V229.373H178.659V239.838H177.068ZM182.47 236.44L180.721 236.72L180.71 236.709C180.912 237.819 181.36 238.661 182.077 239.221C182.783 239.794 183.826 240.074 185.182 240.074C186 240.074 186.74 239.928 187.39 239.648C188.04 239.367 188.533 238.963 188.88 238.436C189.228 237.909 189.396 237.371 189.396 236.765C189.396 236.159 189.25 235.654 188.97 235.25C188.69 234.847 188.297 234.533 187.804 234.319C187.311 234.106 186.437 233.837 185.182 233.501C184.308 233.265 183.792 233.119 183.613 233.052C183.299 232.928 183.075 232.771 182.929 232.581C182.783 232.401 182.716 232.199 182.716 231.964C182.716 231.605 182.895 231.291 183.243 231.022C183.59 230.752 184.173 230.618 184.991 230.618C185.686 230.618 186.213 230.764 186.594 231.066C186.975 231.358 187.199 231.784 187.278 232.323L189.015 232.087C188.914 231.403 188.701 230.865 188.41 230.461C188.107 230.057 187.647 229.732 187.031 229.496C186.415 229.26 185.686 229.137 184.868 229.137C184.319 229.137 183.803 229.216 183.333 229.35C182.851 229.496 182.481 229.664 182.201 229.866C181.831 230.124 181.539 230.449 181.326 230.853C181.102 231.257 181.001 231.683 181.001 232.155C181.001 232.659 181.136 233.13 181.394 233.557C181.651 233.983 182.032 234.319 182.537 234.555C183.041 234.791 183.938 235.082 185.238 235.408C186.202 235.654 186.807 235.856 187.053 236.013C187.401 236.238 187.58 236.552 187.58 236.956C187.58 237.404 187.378 237.797 186.986 238.122C186.594 238.447 185.977 238.616 185.171 238.616C184.364 238.616 183.736 238.425 183.288 238.055C182.839 237.685 182.57 237.146 182.47 236.44ZM190.808 236.72L192.556 236.44C192.657 237.146 192.926 237.685 193.374 238.055C193.823 238.425 194.45 238.616 195.257 238.616C196.064 238.616 196.681 238.447 197.073 238.122C197.465 237.797 197.667 237.404 197.667 236.956C197.667 236.552 197.488 236.238 197.14 236.013C196.894 235.856 196.288 235.654 195.325 235.408C194.024 235.082 193.128 234.791 192.624 234.555C192.119 234.319 191.738 233.983 191.48 233.557C191.223 233.13 191.088 232.659 191.088 232.155C191.088 231.683 191.189 231.257 191.413 230.853C191.626 230.449 191.917 230.124 192.287 229.866C192.568 229.664 192.937 229.496 193.419 229.35C193.89 229.216 194.406 229.137 194.955 229.137C195.773 229.137 196.501 229.26 197.118 229.496C197.734 229.732 198.194 230.057 198.496 230.461C198.788 230.865 199.001 231.403 199.101 232.087L197.364 232.323C197.286 231.784 197.062 231.358 196.681 231.066C196.3 230.764 195.773 230.618 195.078 230.618C194.26 230.618 193.677 230.752 193.33 231.022C192.982 231.291 192.803 231.605 192.803 231.964C192.803 232.199 192.87 232.401 193.016 232.581C193.162 232.771 193.386 232.928 193.699 233.052C193.879 233.119 194.394 233.265 195.269 233.501C196.524 233.837 197.398 234.106 197.891 234.319C198.384 234.533 198.776 234.847 199.057 235.25C199.337 235.654 199.483 236.159 199.483 236.765C199.483 237.371 199.314 237.909 198.967 238.436C198.62 238.963 198.126 239.367 197.476 239.648C196.826 239.928 196.087 240.074 195.269 240.074C193.912 240.074 192.87 239.794 192.164 239.221C191.447 238.661 190.998 237.819 190.797 236.709L190.808 236.72ZM208.791 236.475L208.774 236.473L208.796 236.462L208.791 236.475ZM207.698 238.1C208.154 237.754 208.523 237.22 208.791 236.475L210.6 236.698C210.309 237.774 209.771 238.604 208.998 239.188C208.224 239.771 207.216 240.074 206.005 240.074C204.47 240.074 203.259 239.603 202.363 238.661C201.466 237.718 201.018 236.395 201.018 234.69C201.018 232.985 201.466 231.56 202.374 230.584C203.282 229.608 204.459 229.126 205.904 229.126C207.35 229.126 208.449 229.597 209.334 230.55C210.219 231.504 210.668 232.839 210.668 234.577V235.049H202.867C202.934 236.204 203.259 237.079 203.842 237.696C204.425 238.313 205.154 238.616 206.028 238.616C206.678 238.616 207.238 238.447 207.698 238.1ZM208.796 233.602H202.957C203.013 232.693 203.327 231.964 203.876 231.414C204.425 230.865 205.109 230.595 205.927 230.595C206.823 230.595 207.563 230.932 208.124 231.616C208.493 232.065 208.718 232.715 208.796 233.602ZM212.786 239.838V225.39H214.557V239.838H212.786ZM218.345 236.44L216.596 236.72L216.585 236.709C216.787 237.819 217.235 238.661 217.953 239.221C218.659 239.794 219.701 240.074 221.057 240.074C221.875 240.074 222.615 239.928 223.265 239.648C223.915 239.367 224.408 238.963 224.756 238.436C225.103 237.909 225.271 237.371 225.271 236.765C225.271 236.159 225.125 235.654 224.845 235.25C224.565 234.847 224.173 234.533 223.68 234.319C223.186 234.106 222.312 233.837 221.057 233.501C220.183 233.265 219.667 233.119 219.488 233.052C219.174 232.928 218.95 232.771 218.804 232.581C218.659 232.401 218.591 232.199 218.591 231.964C218.591 231.605 218.771 231.291 219.118 231.022C219.466 230.752 220.048 230.618 220.867 230.618C221.561 230.618 222.088 230.764 222.469 231.066C222.85 231.358 223.074 231.784 223.153 232.323L224.89 232.087C224.789 231.403 224.576 230.865 224.285 230.461C223.982 230.057 223.523 229.732 222.906 229.496C222.29 229.26 221.561 229.137 220.743 229.137C220.194 229.137 219.679 229.216 219.208 229.35C218.726 229.496 218.356 229.664 218.076 229.866C217.706 230.124 217.415 230.449 217.202 230.853C216.978 231.257 216.877 231.683 216.877 232.155C216.877 232.659 217.011 233.13 217.269 233.557C217.527 233.983 217.908 234.319 218.412 234.555C218.916 234.791 219.813 235.082 221.113 235.408C222.077 235.654 222.682 235.856 222.929 236.013C223.276 236.238 223.455 236.552 223.455 236.956C223.455 237.404 223.254 237.797 222.861 238.122C222.469 238.447 221.853 238.616 221.046 238.616C220.239 238.616 219.611 238.425 219.163 238.055C218.715 237.685 218.446 237.146 218.345 236.44Z" fill="#00349A"/>
</g>
<defs>
<clipPath id="clip0_1149_93">
<rect width="310" height="400" fill="white"/>
</clipPath>
</defs>
</svg>
