<svg width="337" height="435" viewBox="0 0 337 435" fill="none" xmlns="http://www.w3.org/2000/svg">
<path fill-rule="evenodd" clip-rule="evenodd" d="M7.98988 131.113L89.1179 0L318.98 108.337L336.189 185.281L298.698 295.465L93.4201 434.58L55.9291 421.654L0 161.89L7.98988 131.113ZM74.5392 151.229V234.07H91.2442V197.851H123.966V234.07H140.671V151.229H123.966V183.829H91.2442V151.229H74.5392ZM157.695 234.07V151.229H182.685L197.694 207.737L212.531 151.229H237.582V234.07H222.069V168.858L205.647 234.07H189.569L173.208 168.858V234.07H157.695ZM77.4155 260.834L77.1328 259.111H77.1082C76.764 259.16 76.4813 259.185 76.2601 259.185C75.9774 259.185 75.7438 259.148 75.5963 259.049C75.4488 258.951 75.3259 258.827 75.2644 258.667C75.203 258.507 75.1661 258.15 75.1661 257.596V250.875H77.1205V249.36H75.1661V245.347L73.2362 246.516V249.36H71.8103V250.875H73.2362V257.486C73.2362 258.655 73.31 259.431 73.4698 259.788C73.6296 260.157 73.9 260.453 74.2933 260.674C74.6867 260.896 75.2398 261.007 75.9405 261.007C76.383 261.007 76.8624 260.945 77.4155 260.834ZM79.0135 260.846V249.36H80.759V251.108C81.2015 250.296 81.6194 249.754 82.0005 249.496C82.3816 249.237 82.7995 249.102 83.2543 249.102C83.9058 249.102 84.5818 249.311 85.2579 249.73L84.5941 251.539C84.1147 251.256 83.6476 251.121 83.1682 251.121C82.738 251.121 82.357 251.244 82.0251 251.502C81.6809 251.761 81.4473 252.118 81.2998 252.573C81.0786 253.263 80.9802 254.026 80.9802 254.851V260.871H79.0381L79.0135 260.846ZM91.8219 260.723C92.4857 260.477 93.174 260.046 93.8993 259.431L93.887 259.443C93.9484 259.985 94.0836 260.453 94.2803 260.859H96.3085C96.0627 260.416 95.9029 259.96 95.8168 259.48C95.7308 259 95.6939 257.855 95.6939 256.045V253.448C95.6939 252.586 95.657 251.983 95.5956 251.65C95.4849 251.108 95.276 250.665 94.9933 250.321C94.6982 249.964 94.2557 249.68 93.6411 249.446C93.0265 249.213 92.2398 249.102 91.2565 249.102C90.2731 249.102 89.4004 249.237 88.6505 249.508C87.9007 249.779 87.323 250.161 86.9296 250.665C86.5363 251.158 86.2536 251.823 86.0815 252.635L87.9868 252.894C88.1957 252.081 88.5276 251.515 88.9578 251.195C89.4004 250.875 90.0764 250.715 90.986 250.715C91.9694 250.715 92.7069 250.936 93.1986 251.379C93.5674 251.699 93.7518 252.266 93.7518 253.054V253.558C93.0142 253.817 91.8588 254.038 90.2854 254.223C89.511 254.322 88.9333 254.42 88.5522 254.519C88.0359 254.666 87.5688 254.876 87.1509 255.159C86.733 255.442 86.4011 255.811 86.1429 256.279C85.8848 256.747 85.7619 257.252 85.7619 257.818C85.7619 258.778 86.1061 259.566 86.7821 260.182C87.4582 260.797 88.417 261.105 89.6831 261.105C90.4452 261.105 91.1581 260.97 91.8219 260.723ZM90.5681 255.824C91.9694 255.614 93.0388 255.368 93.7395 255.085H93.7518V255.799C93.7518 256.661 93.6534 257.301 93.4445 257.744C93.1617 258.31 92.7315 258.754 92.1538 259.086C91.5638 259.418 90.9 259.578 90.1502 259.578C89.4003 259.578 88.8226 259.406 88.4293 259.061C88.0359 258.717 87.8392 258.286 87.8392 257.769C87.8392 257.436 87.9253 257.129 88.1097 256.845C88.2818 256.575 88.5399 256.365 88.8718 256.218C89.2037 256.07 89.7691 255.934 90.5681 255.824ZM98.7178 247.23V244.99H100.66V247.23H98.7178ZM98.7178 260.859V249.373H100.66V260.859H98.7178ZM103.622 249.36V260.846L103.647 260.834H105.589V254.556C105.589 253.091 105.896 252.093 106.486 251.564C107.076 251.035 107.802 250.776 108.625 250.776C109.141 250.776 109.596 250.899 109.977 251.133C110.358 251.367 110.629 251.675 110.776 252.069C110.924 252.463 110.998 253.066 110.998 253.854V260.846H112.94V253.78C112.94 252.881 112.903 252.241 112.829 251.884C112.719 251.33 112.522 250.838 112.227 250.444C111.932 250.05 111.502 249.717 110.924 249.471C110.346 249.225 109.707 249.102 109.019 249.102C107.433 249.102 106.216 249.73 105.368 250.998V249.36H103.622ZM115.939 247.23V244.99H117.881V247.23H115.939ZM115.939 260.859V249.373H117.881V260.859H115.939ZM120.844 249.36V260.846L120.868 260.834H122.81V254.556C122.81 253.091 123.118 252.093 123.708 251.564C124.298 251.035 125.023 250.776 125.846 250.776C126.363 250.776 126.818 250.899 127.199 251.133C127.58 251.367 127.85 251.675 127.998 252.069C128.145 252.463 128.219 253.066 128.219 253.854V260.846H130.161V253.78C130.161 252.881 130.124 252.241 130.05 251.884C129.94 251.33 129.743 250.838 129.448 250.444C129.153 250.05 128.723 249.717 128.145 249.471C127.567 249.225 126.928 249.102 126.24 249.102C124.654 249.102 123.437 249.73 122.589 250.998V249.36H120.844ZM132.792 261.807L134.685 262.09C134.758 262.669 134.98 263.099 135.348 263.37C135.828 263.727 136.491 263.912 137.327 263.912C138.225 263.912 138.925 263.727 139.417 263.37C139.909 263.013 140.241 262.509 140.413 261.856C140.511 261.462 140.56 260.625 140.548 259.357C139.7 260.354 138.643 260.859 137.376 260.859C135.803 260.859 134.574 260.293 133.713 259.148C132.853 258.003 132.423 256.636 132.423 255.048C132.423 253.952 132.619 252.943 133.013 252.019C133.406 251.096 133.984 250.382 134.734 249.865C135.484 249.348 136.369 249.102 137.389 249.102C138.741 249.102 139.859 249.656 140.732 250.751V249.373H142.527V259.308C142.527 261.093 142.343 262.361 141.986 263.112C141.617 263.863 141.052 264.454 140.253 264.885C139.454 265.315 138.495 265.537 137.34 265.537C135.975 265.537 134.869 265.229 134.021 264.614C133.173 263.998 132.767 263.075 132.804 261.831L132.792 261.807ZM134.402 254.9C134.402 256.402 134.697 257.51 135.299 258.2C135.901 258.889 136.651 259.234 137.549 259.234C138.446 259.234 139.196 258.889 139.798 258.2C140.4 257.51 140.708 256.427 140.708 254.962C140.708 253.497 140.4 252.5 139.773 251.786C139.147 251.072 138.397 250.715 137.524 250.715C136.651 250.715 135.926 251.072 135.324 251.773C134.721 252.475 134.414 253.521 134.414 254.9H134.402ZM150.849 254.137V256.094H156.823V254.137H150.849ZM166.914 260.846H165.108V244.99H167.05V250.653C167.873 249.619 168.918 249.102 170.196 249.102C170.897 249.102 171.573 249.249 172.2 249.533C172.827 249.816 173.343 250.222 173.761 250.739C174.167 251.256 174.486 251.872 174.72 252.61C174.953 253.349 175.064 254.112 175.064 254.95C175.064 256.919 174.585 258.446 173.601 259.517C172.618 260.588 171.463 261.13 170.098 261.13C168.734 261.13 167.677 260.563 166.914 259.431V260.846ZM166.89 255.018C166.89 256.393 167.075 257.388 167.455 258.003C168.07 259 168.893 259.505 169.938 259.505C170.786 259.505 171.524 259.135 172.139 258.397C172.753 257.658 173.073 256.55 173.073 255.097C173.073 253.645 172.778 252.487 172.175 251.773C171.573 251.059 170.86 250.702 170.024 250.702C169.188 250.702 168.439 251.072 167.824 251.81C167.21 252.548 166.891 253.617 166.89 255.018ZM177.4 249.36V260.846L177.412 260.871H179.354V254.851C179.354 254.026 179.452 253.263 179.674 252.573C179.821 252.118 180.055 251.761 180.399 251.502C180.731 251.244 181.112 251.121 181.542 251.121C182.021 251.121 182.489 251.256 182.968 251.539L183.632 249.73C182.956 249.311 182.28 249.102 181.628 249.102C181.186 249.102 180.768 249.237 180.387 249.496C180.006 249.754 179.588 250.296 179.145 251.108V249.36H177.4ZM192.31 260.846V259.16C191.413 260.453 190.208 261.105 188.671 261.105C187.995 261.105 187.356 260.97 186.779 260.711C186.201 260.453 185.758 260.12 185.476 259.726C185.193 259.332 184.996 258.852 184.873 258.286C184.799 257.904 184.75 257.301 184.75 256.464V249.348H186.692V255.725C186.692 256.747 186.729 257.424 186.815 257.781C186.938 258.298 187.196 258.692 187.59 258.988C187.983 259.283 188.475 259.431 189.065 259.431C189.655 259.431 190.196 259.283 190.712 258.975C191.228 258.68 191.585 258.273 191.794 257.756C192.003 257.239 192.113 256.488 192.113 255.516V249.36H194.055V260.846H192.31ZM198.235 257.116L196.317 257.424L196.305 257.412C196.526 258.631 197.018 259.554 197.805 260.169C198.579 260.797 199.722 261.105 201.209 261.105C202.107 261.105 202.918 260.945 203.631 260.637C204.344 260.329 204.885 259.886 205.266 259.308C205.647 258.729 205.831 258.138 205.831 257.473C205.831 256.809 205.671 256.254 205.364 255.811C205.057 255.368 204.627 255.023 204.086 254.789C203.545 254.556 202.586 254.26 201.209 253.891C200.251 253.632 199.685 253.472 199.489 253.398C199.144 253.263 198.899 253.091 198.739 252.881C198.579 252.684 198.505 252.463 198.505 252.204C198.505 251.81 198.702 251.465 199.083 251.17C199.464 250.875 200.103 250.727 201 250.727C201.763 250.727 202.34 250.887 202.758 251.219C203.176 251.539 203.422 252.007 203.508 252.598L205.413 252.34C205.303 251.589 205.069 250.998 204.75 250.554C204.418 250.111 203.914 249.754 203.238 249.496C202.562 249.237 201.763 249.102 200.865 249.102C200.263 249.102 199.698 249.188 199.181 249.336C198.653 249.496 198.247 249.68 197.94 249.902C197.534 250.185 197.215 250.542 196.981 250.985C196.735 251.429 196.624 251.896 196.624 252.413C196.624 252.967 196.772 253.485 197.055 253.952C197.337 254.42 197.755 254.789 198.309 255.048C198.862 255.307 199.845 255.627 201.271 255.984C202.328 256.254 202.992 256.476 203.262 256.648C203.643 256.895 203.84 257.239 203.84 257.683C203.84 258.175 203.619 258.606 203.188 258.963C202.758 259.32 202.082 259.505 201.197 259.505C200.312 259.505 199.624 259.295 199.132 258.889C198.64 258.483 198.345 257.892 198.235 257.116ZM207.38 257.424L209.298 257.116C209.408 257.892 209.703 258.483 210.195 258.889C210.687 259.295 211.375 259.505 212.26 259.505C213.145 259.505 213.821 259.32 214.251 258.963C214.682 258.606 214.903 258.175 214.903 257.683C214.903 257.239 214.706 256.895 214.325 256.648C214.055 256.476 213.391 256.254 212.334 255.984C210.908 255.627 209.925 255.307 209.371 255.048C208.818 254.789 208.4 254.42 208.118 253.952C207.835 253.485 207.687 252.967 207.687 252.413C207.687 251.896 207.798 251.429 208.044 250.985C208.277 250.542 208.597 250.185 209.003 249.902C209.31 249.68 209.716 249.496 210.244 249.336C210.76 249.188 211.326 249.102 211.928 249.102C212.826 249.102 213.625 249.237 214.301 249.496C214.977 249.754 215.481 250.111 215.812 250.554C216.132 250.998 216.366 251.589 216.476 252.34L214.571 252.598C214.485 252.007 214.239 251.539 213.821 251.219C213.403 250.887 212.826 250.727 212.063 250.727C211.166 250.727 210.527 250.875 210.146 251.17C209.765 251.465 209.568 251.81 209.568 252.204C209.568 252.463 209.642 252.684 209.802 252.881C209.961 253.091 210.207 253.263 210.551 253.398C210.748 253.472 211.314 253.632 212.272 253.891C213.649 254.26 214.608 254.556 215.149 254.789C215.69 255.023 216.12 255.368 216.427 255.811C216.734 256.254 216.894 256.809 216.894 257.473C216.894 258.138 216.71 258.729 216.329 259.308C215.948 259.886 215.407 260.329 214.694 260.637C213.981 260.945 213.17 261.105 212.272 261.105C210.785 261.105 209.642 260.797 208.867 260.169C208.081 259.554 207.589 258.631 207.368 257.412L207.38 257.424ZM227.104 257.156L227.084 257.153L227.109 257.141L227.104 257.156ZM225.904 258.938C226.405 258.559 226.809 257.973 227.104 257.156L229.088 257.399C228.768 258.581 228.178 259.492 227.33 260.132C226.482 260.773 225.376 261.105 224.048 261.105C222.364 261.105 221.037 260.588 220.053 259.554C219.07 258.52 218.578 257.067 218.578 255.196C218.578 253.324 219.07 251.761 220.066 250.69C221.061 249.619 222.352 249.089 223.938 249.089C225.523 249.089 226.728 249.607 227.699 250.653C228.67 251.699 229.162 253.164 229.162 255.073V255.59H220.606C220.68 256.858 221.037 257.818 221.676 258.495C222.315 259.172 223.114 259.505 224.073 259.505C224.786 259.505 225.4 259.32 225.904 258.938ZM227.109 254.002H220.705C220.766 253.004 221.11 252.204 221.713 251.601C222.315 250.998 223.065 250.702 223.962 250.702C224.946 250.702 225.757 251.072 226.371 251.822C226.777 252.315 227.023 253.029 227.109 254.002ZM231.485 260.846V244.99H233.427V260.846H231.485ZM237.582 257.116L235.664 257.424L235.652 257.412C235.873 258.631 236.365 259.554 237.152 260.169C237.926 260.797 239.069 261.105 240.557 261.105C241.454 261.105 242.265 260.945 242.978 260.637C243.691 260.329 244.232 259.886 244.613 259.308C244.994 258.729 245.178 258.138 245.178 257.473C245.178 256.809 245.019 256.254 244.711 255.811C244.404 255.368 243.974 255.023 243.433 254.789C242.892 254.556 241.933 254.26 240.557 253.891C239.598 253.632 239.032 253.472 238.836 253.398C238.491 253.263 238.246 253.091 238.086 252.881C237.926 252.684 237.852 252.463 237.852 252.204C237.852 251.81 238.049 251.465 238.43 251.17C238.811 250.875 239.45 250.727 240.348 250.727C241.11 250.727 241.687 250.887 242.105 251.219C242.523 251.539 242.769 252.007 242.855 252.598L244.76 252.34C244.65 251.589 244.416 250.998 244.097 250.554C243.765 250.111 243.261 249.754 242.585 249.496C241.909 249.237 241.11 249.102 240.212 249.102C239.61 249.102 239.045 249.188 238.528 249.336C238 249.496 237.594 249.68 237.287 249.902C236.881 250.185 236.562 250.542 236.328 250.985C236.082 251.429 235.972 251.896 235.972 252.413C235.972 252.967 236.119 253.485 236.402 253.952C236.685 254.42 237.102 254.789 237.656 255.048C238.209 255.307 239.192 255.627 240.618 255.984C241.675 256.254 242.339 256.476 242.609 256.648C242.99 256.895 243.187 257.239 243.187 257.683C243.187 258.175 242.966 258.606 242.536 258.963C242.105 259.32 241.429 259.505 240.544 259.505C239.659 259.505 238.971 259.295 238.479 258.889C237.987 258.483 237.692 257.892 237.582 257.116Z" fill="#00349A"/>
</svg>
